<svg id="Layer_1" data-name="Layer 1" xmlns="http://www.w3.org/2000/svg" viewBox="0 0 40.8 40"><defs><style>.cls-1{fill:#ff003c;fill-rule:evenodd;}.cls-2{fill:#ffa927;}.cls-3{fill:none;}.cls-4{font-size:7.27px;}.cls-4,.cls-5{fill:#fff;font-family:HelveticaNeueBold, HelveticaNeue;}.cls-5{font-size:21.78px;}</style></defs><path class="cls-1" d="M35.3,28.8A2.7,2.7,0,0,1,35,30a2,2,0,0,1-.9.9L18.9,39.7a2.7,2.7,0,0,1-1.2.3,2.1,2.1,0,0,1-1.2-.3L1.2,30.9A2,2,0,0,1,.3,30,2.7,2.7,0,0,1,0,28.8V11.2A2.7,2.7,0,0,1,.3,10a2,2,0,0,1,.9-.9L16.5.3A2.1,2.1,0,0,1,17.7,0a2.7,2.7,0,0,1,1.2.3L34.1,9.1a2,2,0,0,1,.9.9,2.7,2.7,0,0,1,.3,1.2Z" transform="translate(0 0)"/><path class="cls-2" d="M33,15.5a7.7,7.7,0,0,0,7.8-7.7,7.8,7.8,0,1,0-15.6,0A7.7,7.7,0,0,0,33,15.5Z" transform="translate(0 0)"/><rect class="cls-3" x="29" y="5.2" width="7.9" height="6.02"/><text class="cls-4" transform="translate(29.3 10.7)">17</text><text class="cls-5" transform="translate(9.6 28)">H</text></svg>