<svg xmlns="http://www.w3.org/2000/svg" width="95.713" height="94.908" viewBox="0 0 95.713 94.908"><path d="M272.689,379.139h78.128v78.134h-17.33v-47.2l-.638-.3c-2.06,2.126-4.081,4.294-6.2,6.365-1.36,1.332-2.939,2.443-4.278,3.794-3.173,3.2-6.208,6.535-9.4,9.715-2.845,2.836-5.9,5.465-8.728,8.313-3.347,3.367-6.5,6.929-9.843,10.3-2.775,2.794-5.779,5.36-8.552,8.155-3.4,3.426-6.643,7.005-9.995,10.478-1.973,2.044-4.069,3.97-6.023,6.031-1.058,1.116-1.837,1.331-2.994.068-3.127-3.413-6.394-6.7-9.515-10.119a1.9,1.9,0,0,1,.078-1.847c4.04-4.22,8.181-8.343,12.261-12.524,3.033-3.109,5.957-6.327,9.04-9.385,3.027-3,6.271-5.787,9.28-8.807,3.292-3.3,6.363-6.826,9.642-10.143,2.938-2.971,6.089-5.732,9.036-8.694,3.233-3.25,6.3-6.665,9.521-9.928,1.465-1.484,3.126-2.775,4.7-4.154l-.327-.722H272.689Z" transform="translate(474.352 -256.409) rotate(90)" fill="none" stroke="#000" stroke-width="1"/></svg>