<svg width="41" height="40" viewBox="0 0 41 40" fill="none" xmlns="http://www.w3.org/2000/svg">
<g clip-path="url(#clip0_5:56)">
<path fill-rule="evenodd" clip-rule="evenodd" d="M35.473 28.8C35.4672 29.2178 35.364 29.6286 35.1716 30C34.9766 30.39 34.6591 30.706 34.2672 30.9L18.9926 39.7C18.6194 39.8915 18.2066 39.9942 17.7868 40C17.3637 40.0228 16.9435 39.9182 16.5809 39.7L1.20588 30.9C0.813969 30.706 0.496411 30.39 0.301471 30C0.10902 29.6286 0.00582205 29.2178 0 28.8L0 11.2C0.00582205 10.7822 0.10902 10.3714 0.301471 10C0.496411 9.61 0.813969 9.294 1.20588 9.10001L16.5809 0.300006C16.9435 0.081799 17.3637 -0.0227366 17.7868 5.77839e-06C18.2066 0.00579943 18.6194 0.108494 18.9926 0.300006L34.2672 9.10001C34.6591 9.294 34.9766 9.61 35.1716 10C35.364 10.3714 35.4672 10.7822 35.473 11.2V28.8Z" fill="#FF003C"/>
<path d="M33.162 15.5C34.1865 15.5132 35.2035 15.3239 36.1539 14.9428C37.1044 14.5618 37.9693 13.9967 38.6985 13.2804C39.4276 12.5641 40.0066 11.7107 40.4017 10.7699C40.7969 9.82916 41.0003 8.81965 41.0002 7.8C41.0002 5.73131 40.1744 3.74735 38.7044 2.28457C37.2345 0.821783 35.2408 0 33.162 0C31.0831 0 29.0895 0.821783 27.6195 2.28457C26.1495 3.74735 25.3237 5.73131 25.3237 7.8C25.3236 8.81965 25.5271 9.82916 25.9222 10.7699C26.3173 11.7107 26.8963 12.5641 27.6255 13.2804C28.3547 13.9967 29.2196 14.5618 30.17 14.9428C31.1204 15.3239 32.1374 15.5132 33.162 15.5V15.5Z" fill="#FFA927"/>
<path d="M11.5028 28V12.4491H14.9223V18.4168H21.2167V12.4491H24.6362V28H21.2167V21.2918H14.9223V28H11.5028Z" fill="white"/>
<path d="M32.528 4.7V11H31.25V6.914H29.666V5.951C30.776 5.975 31.391 5.558 31.511 4.7H32.528ZM37.664 4.7V5.798C37.04 6.344 36.533 7.145 36.143 8.201C35.795 9.155 35.615 10.088 35.603 11H34.235C34.379 9.11 35.084 7.406 36.35 5.888H33.362V4.7H37.664Z" fill="white"/>
</g>
<defs>
<clipPath id="clip0_5:56">
<rect width="41" height="40" fill="white"/>
</clipPath>
</defs>
</svg>
